<?xml version="1.0" encoding="utf-8"?>
<!-- Generator: Adobe Illustrator 15.1.0, SVG Export Plug-In . SVG Version: 6.00 Build 0)  -->
<!DOCTYPE svg PUBLIC "-//W3C//DTD SVG 1.1//EN" "http://www.w3.org/Graphics/SVG/1.1/DTD/svg11.dtd">
<svg version="1.1" id="Layer_1" xmlns="http://www.w3.org/2000/svg" xmlns:xlink="http://www.w3.org/1999/xlink" x="0px" y="0px"
	 width="99.999px" height="96.603px" viewBox="0 0 99.999 96.603" enable-background="new 0 0 99.999 96.603" xml:space="preserve">
<path fill="#010101" d="M80.989,6.423C62.306-4.253,44.597,1.167,39.613,3.083c-4.997,1.924-9.272,6.055-10.914,7.781
	c-0.684-0.358-1.502-0.721-2.499-1.078C21.176,7.988,14.274,9.485,9.028,13.51c-3.774,2.895-9.951,9.651-8.912,22.374
	C1.163,48.719,8.662,54.924,14.383,57.82c-0.187,0.255-0.3,0.566-0.3,0.906V76.17v0.001h-2.754c-0.85,0-1.54,0.689-1.54,1.539
	c0,0.001,0,0.001,0,0.001c0,0.001,0,0.002,0,0.002L9.786,95.061c0,0.85,0.689,1.539,1.539,1.539c0,0,0,0,0,0c0,0,0.001,0,0.001,0
	s0.001,0,0.001,0l75.098,0.003c0.85,0,1.539-0.689,1.539-1.539c0-0.072-0.013-0.141-0.021-0.211c0.009-0.07,0.021-0.14,0.021-0.212
	V78.223c0-0.088-0.013-0.172-0.026-0.255c0.014-0.083,0.026-0.167,0.026-0.255c0-0.85-0.689-1.539-1.539-1.539l-69.266-0.003V76.17
	V59.053c2.246,0.854,3.806,1.122,3.86,1.13c0.068,0.011,0.136,0.016,0.203,0.016c0.62,0,1.165-0.449,1.265-1.081
	c0.111-0.699-0.365-1.356-1.064-1.468c-0.172-0.027-17.2-2.956-18.752-21.975c-0.939-11.511,4.557-17.553,7.916-20.13
	c4.512-3.46,10.578-4.834,14.749-3.342c3.401,1.215,4.089,2.333,4.162,2.468c0.188,0.628,0.827,1.02,1.482,0.886
	c0.694-0.14,1.144-0.817,1.003-1.511c-0.057-0.281-0.281-0.923-1.13-1.715c1.685-1.721,5.463-5.229,9.68-6.853
	c4.717-1.814,21.481-6.943,39.182,3.173c19.007,10.864,17.837,26.578,17.642,28.334l-0.028,0.249
	c-0.376,3.41-1.375,12.466-7.864,16.375c-4.49,2.704-10.894,2.558-19.038-0.424c0.729-0.668,1.46-1.378,2.194-2.18
	c0.479-0.522,0.443-1.334-0.08-1.812c-0.521-0.478-1.334-0.442-1.812,0.08c-3.818,4.169-7.412,6.288-10.686,6.298
	c-0.008,0-0.015,0-0.021,0c-3.901,0-6.717-3.04-8.4-4.856c-0.298-0.322-0.563-0.609-0.797-0.841
	c-0.501-0.499-1.313-0.497-1.814,0.006c-0.499,0.502-0.497,1.314,0.006,1.813c0.211,0.211,0.452,0.472,0.724,0.764
	c1.839,1.986,5.259,5.68,10.282,5.68c0.009,0,0.019,0,0.028,0c2.622-0.009,5.332-1.05,8.101-3.069
	c4.688,1.851,8.904,2.845,12.631,2.999V76.17h3.079V57.993c2.595-0.249,4.912-0.972,6.927-2.186
	c7.576-4.563,8.678-14.538,9.092-18.292l0.026-0.246C100.122,35.342,101.419,18.1,80.989,6.423z M84.887,93.525l-43.098-0.002
	V79.251l43.098,0.002V93.525z M38.71,93.523H33.58V79.251h5.131V93.523z M30.501,93.523h-5.13V79.251h5.13V93.523z M22.292,93.522
	h-9.427l0.002-14.271h9.425V93.522z"/>
</svg>
